PathFileType	4	(X/Y/Z)	12_2_46_p0_0-447.trc
DataRate	CameraRate	NumFrames	NumMarkers	Units	OrigDataRate	OrigDataStartFrame	OrigNumFrames
60.0	60.0	5	27	m	60.0	112	448
Frame#	Time	RHip			RKnee			RAnkle			RBigToe			RSmallToe			RHeel			LHip			LKnee			LAnkle			LBigToe			LSmallToe			LHeel			Neck			Head			Nose			RShoulder			RElbow			RWrist			RThumb			RIndex			RPinky			LShoulder			LElbow			LWrist			LThumb			LIndex			LPinky			
		X1	Y1	Z1	X2	Y2	Z2	X3	Y3	Z3	X4	Y4	Z4	X5	Y5	Z5	X6	Y6	Z6	X7	Y7	Z7	X8	Y8	Z8	X9	Y9	Z9	X10	Y10	Z10	X11	Y11	Z11	X12	Y12	Z12	X13	Y13	Z13	X14	Y14	Z14	X15	Y15	Z15	X16	Y16	Z16	X17	Y17	Z17	X18	Y18	Z18	X19	Y19	Z19	X20	Y20	Z20	X21	Y21	Z21	X22	Y22	Z22	X23	Y23	Z23	X24	Y24	Z24	X25	Y25	Z25	X26	Y26	Z26	X27	Y27	Z27	
112	1.8666666666666667	0.44082979137219896	0.45222315237482597	1.0447285465286216	0.46067315845964546	0.4958852041414841	1.5083763897569127	0.5079357979894642	0.5772473482790863	1.9531067233783577	0.4764269071864408	0.3664442981817612	1.9172207791422653	0.5358634523286933	0.3875519807400097	1.906600055442748	0.48913143795908975	0.6273747162518635	2.0237869897453504	0.24727600044072884	0.46247101113259353	1.0689795183439756	0.2666654132105256	0.5331022990101248	1.5473637280480592	0.31111767357296255	0.5595283774794177	1.9371373025923566	0.3261190814926618	0.38090884271251	1.941137457569884	0.2523256079190103	0.40661585179929316	1.9294595730195883	0.32279720211423296	0.6112392948329359	2.0065206974699694	0.29786286231971504	0.4985190440283277	0.536504181936937	0.3086829497493604	0.4859987816960749	0.28433879462665373	0.3189377715766972	0.3833627406547476	0.39547351745823905	0.4594001806717403	0.534407985960365	0.6258867559526358	0.5303045028030278	0.45318703632276464	0.8505806621984738	0.5562853738919605	0.4053901855351183	1.0983818290622736	0.5107576268537488	0.398263621340637	1.2058115190027365	0.5340331350493307	0.3692285813961421	1.197975696580789	0.5619290809239327	0.3850532175043957	1.201135038461149	0.14966639368088275	0.5220944766658462	0.6417392565084409	0.12814838921998906	0.48194651731908394	0.8946280139845129	0.15684954293896142	0.4227623868127584	1.1043331897339146	0.203067632715884	0.3709061694858015	1.177815432704417	0.18536426731149794	0.38992392684821986	1.2154085520780202	0.1549339238081985	0.41127345365081364	1.2175769514775927
113	1.8833333333333333	0.44100432593440386	0.45276963051383484	1.044790831686833	0.4606664970148562	0.4959057727361474	1.5084511768243647	0.5079712465639042	0.5772333929329009	1.9532296228585777	0.4764540720743589	0.36640395714453206	1.917229979917846	0.5358642454333861	0.3874763917050974	1.9066813310556536	0.48935469822755323	0.6275766298150195	2.024150296053303	0.24724845339049745	0.4626525530826	1.0690767170397593	0.26667151948261975	0.533100902048263	1.5474002786689185	0.3111397407572232	0.559494809542119	1.9371781534847796	0.3261778918012181	0.38087535985813387	1.941051897782026	0.25238100098051924	0.40648852459932866	1.9292240377988308	0.32281487459075275	0.6112062681981509	2.0066456665086654	0.29784379318642196	0.4986160522783058	0.5365285850511203	0.3123943383350693	0.47318352318305323	0.282688653611141	0.3153599994779219	0.38141719171451305	0.39578754840757935	0.45916119022366847	0.5325660634780395	0.6257874948284954	0.5343231062558618	0.4547604717517092	0.8504316465662133	0.5561846333143967	0.4052144309068041	1.0983231943758647	0.5066025549848793	0.3967652286508812	1.2057304975256191	0.5337944308664319	0.36891157493914634	1.1977700928320498	0.5618260930340772	0.38508659722962535	1.2010486159187073	0.14967460035072538	0.5221468432962706	0.6417574856914778	0.12758114304105508	0.48315024709254983	0.8909990224524743	0.15692529375267028	0.42288830596629745	1.1043106438983774	0.2030347115575927	0.3709628449897726	1.1776528653403768	0.1809185649709717	0.40182487073180667	1.2209836179125442	0.15443427633295834	0.41249253381663603	1.2149136968087726
114	1.9	0.44097726278799254	0.4525253786046657	1.0447729181704084	0.460735642259134	0.49596371705124076	1.5085368186101105	0.5079726869072114	0.5772234018250852	1.9533043832944372	0.4764531228302911	0.3663043352799126	1.9171680155964106	0.5366518348695943	0.3852645655457312	1.9102594961162118	0.48929428196387476	0.6275584709254347	2.0241868755418837	0.247253489290015	0.46259899991408815	1.0690979697349325	0.2678736062038787	0.5345322113526484	1.5526793417233238	0.3076539051248743	0.5543050487699996	1.9392516522965129	0.32257176926772546	0.3687279003048199	1.9332215537269493	0.2523777988080336	0.4063584020474646	1.9292203828067878	0.32280680220045893	0.611117784701903	2.0066965452594894	0.29783131394674145	0.4985710637791702	0.5365026012243699	0.31239919860751153	0.47313020900884734	0.28270728249185534	0.31534725523742685	0.3814080756079825	0.395778660139933	0.4585145730153705	0.5333199716679479	0.6222136705853524	0.5333928654786163	0.45398384022366145	0.846255119916753	0.5521598488220126	0.4032069108083501	1.0981001217695172	0.5032459743002738	0.41016592716131506	1.2119359676155073	0.5267294648910562	0.3814455918912592	1.2042723361597518	0.5618783995728085	0.3853348136821747	1.2010829268417091	0.1496386302986999	0.5220911205392298	0.6417395780683014	0.13216507181667417	0.47072452931097547	0.8866980067987521	0.15698069917287932	0.4229221264447042	1.1043072362571993	0.20315593846308697	0.37068026918703645	1.1775927784988705	0.1854430989470033	0.3897981289627927	1.2153255668560645	0.154382795055749	0.4125018620771722	1.21495959668573
115	1.9166666666666667	0.43749976055386663	0.4657253380392053	1.0461575964357377	0.4606642575751239	0.49575032118448964	1.5083213681884435	0.511364992813798	0.561405334225852	1.9421274513679365	0.4764483557686797	0.3664114313001352	1.9171997002011676	0.5366992277896182	0.38529202031994586	1.9102655085425466	0.49324156215373993	0.6287654110066048	2.0237403091919686	0.24740285714195095	0.4626755670501437	1.0654523901036517	0.26718886138215825	0.5330463019466453	1.5430920181247418	0.30766809935255235	0.5543132581485372	1.9391939176158444	0.32254693183636984	0.3689036521388467	1.9333935101478723	0.2523481719424135	0.40649315902665734	1.9294107208672138	0.3228336461914882	0.6110549767675414	2.0065502721331807	0.2978538249926239	0.49845848851672375	0.5364616544956461	0.3123902093996813	0.47309130527062054	0.2826900045724684	0.315354379809747	0.3814081675914619	0.39568672324929344	0.45854440008612085	0.5334183598103955	0.622232689162613	0.5315180360404567	0.4681655171140413	0.8546830422949564	0.5470603549914886	0.3939053416102385	1.0913104902412254	0.4990819849765014	0.4087912464659007	1.2119704265794733	0.5265205942292747	0.3815844087663757	1.2044124240464225	0.56156585253673	0.3849862622106965	1.1968924683950528	0.14964339347278813	0.5221011681769749	0.6417165308078425	0.13611677193364005	0.4734095764084699	0.886952032586842	0.15703926047156738	0.42287240956529226	1.1042796097412177	0.20745869001100456	0.35839335293432634	1.1720215413575532	0.18485726052061013	0.39115077590043823	1.2118346294979274	0.15390983776424222	0.41358464278487506	1.2123214518818144
116	1.9333333333333333	0.4409897299711405	0.45244209102204913	1.0407974639200208	0.46070917912489173	0.4958056161723264	1.5082800298037915	0.5114222384137417	0.5615586423166049	1.9422265309917701	0.47649172483211427	0.36657026831577405	1.9173724430678194	0.5366988719089166	0.3852708585958075	1.9103940021766443	0.49830234627772485	0.6432183947240757	2.032854219914325	0.2471730388724728	0.4625171888783419	1.0690011514091529	0.26723680093957397	0.5330954148424124	1.5430882576759266	0.30768474778333543	0.5543604993617289	1.9392333137292734	0.3261457736518177	0.38085014642950243	1.9410306541479785	0.2523747306691817	0.4064654426491356	1.9292990466901812	0.32284388819167675	0.6111477198346589	2.006591871802276	0.2978494206002965	0.49847766860030435	0.536481154768479	0.3087208797159521	0.4858241957223932	0.28431479529974024	0.31531181967476885	0.38147709715726746	0.39563454977540563	0.4585329158235596	0.5334416844036495	0.6222333087635918	0.5304768979058061	0.46757137328237924	0.8466187678604139	0.5459555430528662	0.3929624576374804	1.087328559691735	0.49881782138575703	0.4083659320057498	1.2117085481316656	0.5262376437793974	0.3813727387285779	1.2042531289972374	0.557651984893064	0.3750883944655175	1.19282597601256	0.14962572220590792	0.522090183163797	0.6417380319262144	0.13610490905326564	0.47330082795950895	0.8869464959143922	0.15703351209340022	0.42294372706607347	1.104291114251282	0.20765759301128622	0.35810256603633117	1.1720811663822615	0.18561169721167045	0.38942919054599023	1.2152307123729147	0.15362735700497568	0.4132157631693128	1.2161550512963408
